%TF.GenerationSoftware,KiCad,Pcbnew,10.0.3*%
%TF.CreationDate,2026-06-07T18:57:17+08:00*%
%TF.ProjectId,DAM_Circuit,44414d5f-4369-4726-9375-69742e6b6963,rev?*%
%TF.SameCoordinates,Original*%
%TF.FileFunction,Soldermask,Bot*%
%TF.FilePolarity,Negative*%
%FSLAX46Y46*%
G04 Gerber Fmt 4.6, Leading zero omitted, Abs format (unit mm)*
G04 Created by KiCad (PCBNEW 10.0.3) date 2026-06-07 18:57:17*
%MOMM*%
%LPD*%
G01*
G04 APERTURE LIST*
G04 Aperture macros list*
%AMRoundRect*
0 Rectangle with rounded corners*
0 $1 Rounding radius*
0 $2 $3 $4 $5 $6 $7 $8 $9 X,Y pos of 4 corners*
0 Add a 4 corners polygon primitive as box body*
4,1,4,$2,$3,$4,$5,$6,$7,$8,$9,$2,$3,0*
0 Add four circle primitives for the rounded corners*
1,1,$1+$1,$2,$3*
1,1,$1+$1,$4,$5*
1,1,$1+$1,$6,$7*
1,1,$1+$1,$8,$9*
0 Add four rect primitives between the rounded corners*
20,1,$1+$1,$2,$3,$4,$5,0*
20,1,$1+$1,$4,$5,$6,$7,0*
20,1,$1+$1,$6,$7,$8,$9,0*
20,1,$1+$1,$8,$9,$2,$3,0*%
G04 Aperture macros list end*
%ADD10C,2.200000*%
%ADD11RoundRect,0.250000X-0.550000X-0.550000X0.550000X-0.550000X0.550000X0.550000X-0.550000X0.550000X0*%
%ADD12C,1.600000*%
%ADD13R,1.700000X1.700000*%
%ADD14C,1.700000*%
%ADD15R,1.905000X2.000000*%
%ADD16O,1.905000X2.000000*%
%ADD17C,2.000000*%
%ADD18RoundRect,0.250000X-0.550000X0.550000X-0.550000X-0.550000X0.550000X-0.550000X0.550000X0.550000X0*%
%ADD19RoundRect,0.249999X-0.850001X-0.850001X0.850001X-0.850001X0.850001X0.850001X-0.850001X0.850001X0*%
%ADD20RoundRect,0.250000X-1.050000X-1.050000X1.050000X-1.050000X1.050000X1.050000X-1.050000X1.050000X0*%
%ADD21C,2.600000*%
%ADD22RoundRect,0.250000X1.050000X1.050000X-1.050000X1.050000X-1.050000X-1.050000X1.050000X-1.050000X0*%
%ADD23R,1.524000X2.524000*%
%ADD24O,1.524000X2.524000*%
G04 APERTURE END LIST*
D10*
%TO.C,REF\u002A\u002A*%
X267500000Y-160500000D03*
%TD*%
%TO.C,REF\u002A\u002A*%
X232500000Y-106500000D03*
%TD*%
%TO.C,REF\u002A\u002A*%
X297000000Y-113500000D03*
%TD*%
%TO.C,REF\u002A\u002A*%
X105000000Y-181000000D03*
%TD*%
D11*
%TO.C,U6*%
X182380000Y-122605000D03*
D12*
X182380000Y-125145000D03*
X182380000Y-127685000D03*
X182380000Y-130225000D03*
X182380000Y-132765000D03*
X182380000Y-135305000D03*
X182380000Y-137845000D03*
X190000000Y-137845000D03*
X190000000Y-135305000D03*
X190000000Y-132765000D03*
X190000000Y-130225000D03*
X190000000Y-127685000D03*
X190000000Y-125145000D03*
X190000000Y-122605000D03*
%TD*%
%TO.C,R10*%
X141500000Y-110160000D03*
X141500000Y-100000000D03*
%TD*%
%TO.C,R21*%
X284920000Y-129000000D03*
X295080000Y-129000000D03*
%TD*%
D13*
%TO.C,U20*%
X131500000Y-91000000D03*
D14*
X131500000Y-93540000D03*
X131500000Y-96080000D03*
%TD*%
D15*
%TO.C,Q1*%
X264460000Y-176550000D03*
D16*
X261920000Y-176550000D03*
X259380000Y-176550000D03*
%TD*%
D15*
%TO.C,Q2*%
X229420000Y-176500000D03*
D16*
X226880000Y-176500000D03*
X224340000Y-176500000D03*
%TD*%
D13*
%TO.C,U21*%
X139500000Y-90960000D03*
D14*
X139500000Y-93500000D03*
X139500000Y-96040000D03*
%TD*%
D11*
%TO.C,U16*%
X183380000Y-157580000D03*
D12*
X183380000Y-160120000D03*
X183380000Y-162660000D03*
X183380000Y-165200000D03*
X183380000Y-167740000D03*
X183380000Y-170280000D03*
X183380000Y-172820000D03*
X191000000Y-172820000D03*
X191000000Y-170280000D03*
X191000000Y-167740000D03*
X191000000Y-165200000D03*
X191000000Y-162660000D03*
X191000000Y-160120000D03*
X191000000Y-157580000D03*
%TD*%
%TO.C,R27*%
X285130000Y-155750000D03*
X295290000Y-155750000D03*
%TD*%
%TO.C,R26*%
X284920000Y-151550000D03*
X295080000Y-151550000D03*
%TD*%
%TO.C,R5*%
X121500000Y-100000000D03*
X121500000Y-110160000D03*
%TD*%
%TO.C,R16*%
X169500000Y-110200000D03*
X169500000Y-100040000D03*
%TD*%
D11*
%TO.C,U5*%
X201380000Y-122880000D03*
D12*
X201380000Y-125420000D03*
X201380000Y-127960000D03*
X201380000Y-130500000D03*
X201380000Y-133040000D03*
X201380000Y-135580000D03*
X201380000Y-138120000D03*
X209000000Y-138120000D03*
X209000000Y-135580000D03*
X209000000Y-133040000D03*
X209000000Y-130500000D03*
X209000000Y-127960000D03*
X209000000Y-125420000D03*
X209000000Y-122880000D03*
%TD*%
%TO.C,R8*%
X133500000Y-110160000D03*
X133500000Y-100000000D03*
%TD*%
D11*
%TO.C,U15*%
X166075000Y-157270000D03*
D12*
X166075000Y-159810000D03*
X166075000Y-162350000D03*
X166075000Y-164890000D03*
X166075000Y-167430000D03*
X166075000Y-169970000D03*
X166075000Y-172510000D03*
X166075000Y-175050000D03*
X173695000Y-175050000D03*
X173695000Y-172510000D03*
X173695000Y-169970000D03*
X173695000Y-167430000D03*
X173695000Y-164890000D03*
X173695000Y-162350000D03*
X173695000Y-159810000D03*
X173695000Y-157270000D03*
%TD*%
D17*
%TO.C,SW2*%
X295500000Y-175000000D03*
X295500000Y-181500000D03*
X291000000Y-175000000D03*
X291000000Y-181500000D03*
%TD*%
D12*
%TO.C,C19*%
X211827500Y-103000000D03*
X211827500Y-98000000D03*
%TD*%
%TO.C,R4*%
X117500000Y-110160000D03*
X117500000Y-100000000D03*
%TD*%
%TO.C,R6*%
X125500000Y-110160000D03*
X125500000Y-100000000D03*
%TD*%
%TO.C,C8*%
X202685000Y-142000000D03*
X207685000Y-142000000D03*
%TD*%
%TO.C,R29*%
X233920000Y-133620000D03*
X244080000Y-133620000D03*
%TD*%
D11*
%TO.C,U13*%
X108000000Y-157735000D03*
D12*
X108000000Y-160275000D03*
X108000000Y-162815000D03*
X108000000Y-165355000D03*
X108000000Y-167895000D03*
X108000000Y-170435000D03*
X108000000Y-172975000D03*
X115620000Y-172975000D03*
X115620000Y-170435000D03*
X115620000Y-167895000D03*
X115620000Y-165355000D03*
X115620000Y-162815000D03*
X115620000Y-160275000D03*
X115620000Y-157735000D03*
%TD*%
%TO.C,R1*%
X105500000Y-100000000D03*
X105500000Y-110160000D03*
%TD*%
%TO.C,R34*%
X273920000Y-163000000D03*
X284080000Y-163000000D03*
%TD*%
%TO.C,R24*%
X284920000Y-142160000D03*
X295080000Y-142160000D03*
%TD*%
D11*
%TO.C,U7*%
X216880000Y-122880000D03*
D12*
X216880000Y-125420000D03*
X216880000Y-127960000D03*
X216880000Y-130500000D03*
X216880000Y-133040000D03*
X216880000Y-135580000D03*
X216880000Y-138120000D03*
X224500000Y-138120000D03*
X224500000Y-135580000D03*
X224500000Y-133040000D03*
X224500000Y-130500000D03*
X224500000Y-127960000D03*
X224500000Y-125420000D03*
X224500000Y-122880000D03*
%TD*%
D18*
%TO.C,U10*%
X289200000Y-110880000D03*
D12*
X286660000Y-110880000D03*
X284120000Y-110880000D03*
X281580000Y-110880000D03*
X279040000Y-110880000D03*
X276500000Y-110880000D03*
X273960000Y-110880000D03*
X271420000Y-110880000D03*
X271420000Y-118500000D03*
X273960000Y-118500000D03*
X276500000Y-118500000D03*
X279040000Y-118500000D03*
X281580000Y-118500000D03*
X284120000Y-118500000D03*
X286660000Y-118500000D03*
X289200000Y-118500000D03*
%TD*%
%TO.C,R23*%
X284920000Y-138110000D03*
X295080000Y-138110000D03*
%TD*%
%TO.C,C3*%
X143500000Y-144770000D03*
X148500000Y-144770000D03*
%TD*%
%TO.C,R36*%
X266420000Y-170000000D03*
X256260000Y-170000000D03*
%TD*%
%TO.C,R14*%
X161500000Y-110200000D03*
X161500000Y-100040000D03*
%TD*%
D11*
%TO.C,U2*%
X141695000Y-122880000D03*
D12*
X141695000Y-125420000D03*
X141695000Y-127960000D03*
X141695000Y-130500000D03*
X141695000Y-133040000D03*
X141695000Y-135580000D03*
X141695000Y-138120000D03*
X141695000Y-140660000D03*
X149315000Y-140660000D03*
X149315000Y-138120000D03*
X149315000Y-135580000D03*
X149315000Y-133040000D03*
X149315000Y-130500000D03*
X149315000Y-127960000D03*
X149315000Y-125420000D03*
X149315000Y-122880000D03*
%TD*%
D13*
%TO.C,U25*%
X175500000Y-91000000D03*
D14*
X175500000Y-93540000D03*
X175500000Y-96080000D03*
%TD*%
D12*
%TO.C,R39*%
X231420000Y-170172500D03*
X221260000Y-170172500D03*
%TD*%
%TO.C,R15*%
X165500000Y-100040000D03*
X165500000Y-110200000D03*
%TD*%
%TO.C,C20*%
X218827500Y-103000000D03*
X218827500Y-98000000D03*
%TD*%
%TO.C,R31*%
X233920000Y-143120000D03*
X244080000Y-143120000D03*
%TD*%
D19*
%TO.C,D1*%
X239420000Y-166000000D03*
D10*
X249580000Y-166000000D03*
%TD*%
D20*
%TO.C,J1*%
X241000000Y-175000000D03*
D21*
X246000000Y-175000000D03*
%TD*%
D13*
%TO.C,U18*%
X115500000Y-90960000D03*
D14*
X115500000Y-93500000D03*
X115500000Y-96040000D03*
%TD*%
D12*
%TO.C,C11*%
X218185000Y-142000000D03*
X223185000Y-142000000D03*
%TD*%
%TO.C,C6*%
X109305000Y-176855000D03*
X114305000Y-176855000D03*
%TD*%
%TO.C,R3*%
X113500000Y-100000000D03*
X113500000Y-110160000D03*
%TD*%
D17*
%TO.C,SW1*%
X295500000Y-162000000D03*
X295500000Y-168500000D03*
X291000000Y-162000000D03*
X291000000Y-168500000D03*
%TD*%
D12*
%TO.C,R32*%
X233920000Y-148570000D03*
X244080000Y-148570000D03*
%TD*%
D18*
%TO.C,U8*%
X255040000Y-110880000D03*
D12*
X252500000Y-110880000D03*
X249960000Y-110880000D03*
X247420000Y-110880000D03*
X244880000Y-110880000D03*
X242340000Y-110880000D03*
X239800000Y-110880000D03*
X237260000Y-110880000D03*
X237260000Y-118500000D03*
X239800000Y-118500000D03*
X242340000Y-118500000D03*
X244880000Y-118500000D03*
X247420000Y-118500000D03*
X249960000Y-118500000D03*
X252500000Y-118500000D03*
X255040000Y-118500000D03*
%TD*%
%TO.C,C9*%
X233540000Y-112380000D03*
X233540000Y-117380000D03*
%TD*%
D18*
%TO.C,U11*%
X248700000Y-90695000D03*
D12*
X246160000Y-90695000D03*
X243620000Y-90695000D03*
X241080000Y-90695000D03*
X238540000Y-90695000D03*
X236000000Y-90695000D03*
X233460000Y-90695000D03*
X233460000Y-98315000D03*
X236000000Y-98315000D03*
X238540000Y-98315000D03*
X241080000Y-98315000D03*
X243620000Y-98315000D03*
X246160000Y-98315000D03*
X248700000Y-98315000D03*
%TD*%
%TO.C,C7*%
X127195000Y-177000000D03*
X132195000Y-177000000D03*
%TD*%
%TO.C,R30*%
X233920000Y-139070000D03*
X244080000Y-139070000D03*
%TD*%
D13*
%TO.C,U22*%
X151500000Y-91000000D03*
D14*
X151500000Y-93540000D03*
X151500000Y-96080000D03*
%TD*%
D11*
%TO.C,U14*%
X147880000Y-157420000D03*
D12*
X147880000Y-159960000D03*
X147880000Y-162500000D03*
X147880000Y-165040000D03*
X147880000Y-167580000D03*
X147880000Y-170120000D03*
X147880000Y-172660000D03*
X147880000Y-175200000D03*
X155500000Y-175200000D03*
X155500000Y-172660000D03*
X155500000Y-170120000D03*
X155500000Y-167580000D03*
X155500000Y-165040000D03*
X155500000Y-162500000D03*
X155500000Y-159960000D03*
X155500000Y-157420000D03*
%TD*%
%TO.C,C10*%
X273460000Y-93185000D03*
X273460000Y-98185000D03*
%TD*%
D13*
%TO.C,U23*%
X159500000Y-91000000D03*
D14*
X159500000Y-93540000D03*
X159500000Y-96080000D03*
%TD*%
D12*
%TO.C,R18*%
X177500000Y-110200000D03*
X177500000Y-100040000D03*
%TD*%
%TO.C,C4*%
X172000000Y-144040000D03*
X167000000Y-144040000D03*
%TD*%
D11*
%TO.C,U1*%
X108695000Y-123110000D03*
D12*
X108695000Y-125650000D03*
X108695000Y-128190000D03*
X108695000Y-130730000D03*
X108695000Y-133270000D03*
X108695000Y-135810000D03*
X108695000Y-138350000D03*
X108695000Y-140890000D03*
X116315000Y-140890000D03*
X116315000Y-138350000D03*
X116315000Y-135810000D03*
X116315000Y-133270000D03*
X116315000Y-130730000D03*
X116315000Y-128190000D03*
X116315000Y-125650000D03*
X116315000Y-123110000D03*
%TD*%
%TO.C,C14*%
X267660000Y-112380000D03*
X267660000Y-117380000D03*
%TD*%
D13*
%TO.C,U17*%
X107500000Y-90920000D03*
D14*
X107500000Y-93460000D03*
X107500000Y-96000000D03*
%TD*%
D12*
%TO.C,C13*%
X184685000Y-176700000D03*
X189685000Y-176700000D03*
%TD*%
%TO.C,C18*%
X276500000Y-181000000D03*
X281500000Y-181000000D03*
%TD*%
%TO.C,R22*%
X284920000Y-133050000D03*
X295080000Y-133050000D03*
%TD*%
D22*
%TO.C,BZ1*%
X264000000Y-94327500D03*
D21*
X259000000Y-94327500D03*
%TD*%
D13*
%TO.C,U24*%
X167500000Y-91000000D03*
D14*
X167500000Y-93540000D03*
X167500000Y-96080000D03*
%TD*%
D13*
%TO.C,U19*%
X123500000Y-90960000D03*
D14*
X123500000Y-93500000D03*
X123500000Y-96040000D03*
%TD*%
D20*
%TO.C,J2*%
X207500000Y-175172500D03*
D21*
X212500000Y-175172500D03*
%TD*%
D12*
%TO.C,C17*%
X277000000Y-168000000D03*
X282000000Y-168000000D03*
%TD*%
D19*
%TO.C,D2*%
X205920000Y-166172500D03*
D10*
X216080000Y-166172500D03*
%TD*%
D12*
%TO.C,R13*%
X157500000Y-100040000D03*
X157500000Y-110200000D03*
%TD*%
D18*
%TO.C,U9*%
X295200000Y-91380000D03*
D12*
X292660000Y-91380000D03*
X290120000Y-91380000D03*
X287580000Y-91380000D03*
X285040000Y-91380000D03*
X282500000Y-91380000D03*
X279960000Y-91380000D03*
X277420000Y-91380000D03*
X277420000Y-99000000D03*
X279960000Y-99000000D03*
X282500000Y-99000000D03*
X285040000Y-99000000D03*
X287580000Y-99000000D03*
X290120000Y-99000000D03*
X292660000Y-99000000D03*
X295200000Y-99000000D03*
%TD*%
%TO.C,R37*%
X256340000Y-166000000D03*
X266500000Y-166000000D03*
%TD*%
%TO.C,C12*%
X229580000Y-92000000D03*
X229580000Y-97000000D03*
%TD*%
%TO.C,C5*%
X183685000Y-141725000D03*
X188685000Y-141725000D03*
%TD*%
%TO.C,R2*%
X109500000Y-110160000D03*
X109500000Y-100000000D03*
%TD*%
%TO.C,R7*%
X129500000Y-100000000D03*
X129500000Y-110160000D03*
%TD*%
%TO.C,R33*%
X233920000Y-152620000D03*
X244080000Y-152620000D03*
%TD*%
%TO.C,C1*%
X114695000Y-144730000D03*
X109695000Y-144730000D03*
%TD*%
%TO.C,R28*%
X233920000Y-129570000D03*
X244080000Y-129570000D03*
%TD*%
%TO.C,R20*%
X185500000Y-110200000D03*
X185500000Y-100040000D03*
%TD*%
%TO.C,C2*%
X126805000Y-144190000D03*
X131805000Y-144190000D03*
%TD*%
%TO.C,R38*%
X221340000Y-166122500D03*
X231500000Y-166122500D03*
%TD*%
D13*
%TO.C,U26*%
X183500000Y-91000000D03*
D14*
X183500000Y-93540000D03*
X183500000Y-96080000D03*
%TD*%
D12*
%TO.C,C16*%
X167575000Y-178930000D03*
X172575000Y-178930000D03*
%TD*%
%TO.C,R19*%
X181500000Y-100120000D03*
X181500000Y-110280000D03*
%TD*%
%TO.C,R9*%
X137500000Y-100000000D03*
X137500000Y-110160000D03*
%TD*%
D15*
%TO.C,U29*%
X212960000Y-93000000D03*
D16*
X215500000Y-93000000D03*
X218040000Y-93000000D03*
%TD*%
D12*
%TO.C,C15*%
X149380000Y-179040000D03*
X154380000Y-179040000D03*
%TD*%
D11*
%TO.C,U4*%
X165880000Y-122340000D03*
D12*
X165880000Y-124880000D03*
X165880000Y-127420000D03*
X165880000Y-129960000D03*
X165880000Y-132500000D03*
X165880000Y-135040000D03*
X165880000Y-137580000D03*
X165880000Y-140120000D03*
X173500000Y-140120000D03*
X173500000Y-137580000D03*
X173500000Y-135040000D03*
X173500000Y-132500000D03*
X173500000Y-129960000D03*
X173500000Y-127420000D03*
X173500000Y-124880000D03*
X173500000Y-122340000D03*
%TD*%
D23*
%TO.C,U27*%
X267920000Y-146360000D03*
D24*
X270460000Y-146360000D03*
X273000000Y-146360000D03*
X275540000Y-146360000D03*
X278080000Y-146360000D03*
X278080000Y-131120000D03*
X275540000Y-131120000D03*
X273000000Y-131120000D03*
X270460000Y-131120000D03*
X267920000Y-131120000D03*
%TD*%
D22*
%TO.C,J3*%
X200500000Y-94500000D03*
D21*
X195500000Y-94500000D03*
%TD*%
D23*
%TO.C,U28*%
X251920000Y-146120000D03*
D24*
X254460000Y-146120000D03*
X257000000Y-146120000D03*
X259540000Y-146120000D03*
X262080000Y-146120000D03*
X262080000Y-130880000D03*
X259540000Y-130880000D03*
X257000000Y-130880000D03*
X254460000Y-130880000D03*
X251920000Y-130880000D03*
%TD*%
D12*
%TO.C,R25*%
X284920000Y-147500000D03*
X295080000Y-147500000D03*
%TD*%
%TO.C,R35*%
X273782500Y-176000000D03*
X283942500Y-176000000D03*
%TD*%
D11*
%TO.C,U12*%
X126195000Y-157880000D03*
D12*
X126195000Y-160420000D03*
X126195000Y-162960000D03*
X126195000Y-165500000D03*
X126195000Y-168040000D03*
X126195000Y-170580000D03*
X126195000Y-173120000D03*
X133815000Y-173120000D03*
X133815000Y-170580000D03*
X133815000Y-168040000D03*
X133815000Y-165500000D03*
X133815000Y-162960000D03*
X133815000Y-160420000D03*
X133815000Y-157880000D03*
%TD*%
%TO.C,R11*%
X149500000Y-100040000D03*
X149500000Y-110200000D03*
%TD*%
%TO.C,R17*%
X173500000Y-100040000D03*
X173500000Y-110200000D03*
%TD*%
D11*
%TO.C,U3*%
X125500000Y-122300000D03*
D12*
X125500000Y-124840000D03*
X125500000Y-127380000D03*
X125500000Y-129920000D03*
X125500000Y-132460000D03*
X125500000Y-135000000D03*
X125500000Y-137540000D03*
X125500000Y-140080000D03*
X133120000Y-140080000D03*
X133120000Y-137540000D03*
X133120000Y-135000000D03*
X133120000Y-132460000D03*
X133120000Y-129920000D03*
X133120000Y-127380000D03*
X133120000Y-124840000D03*
X133120000Y-122300000D03*
%TD*%
%TO.C,R12*%
X153500000Y-110280000D03*
X153500000Y-100120000D03*
%TD*%
M02*
