M48
; DRILL file KiCad 10.0.3 date 2026-06-07T18:59:54
; FORMAT={-:-/ absolute / metric / decimal}
; #@! TF.CreationDate,2026-06-07T18:59:54+08:00
; #@! TF.GenerationSoftware,Kicad,Pcbnew,10.0.3
; #@! TF.FileFunction,Plated,1,2,PTH
FMAT,2
METRIC
; #@! TA.AperFunction,Plated,PTH,ViaDrill
T1C0.400
; #@! TA.AperFunction,Plated,PTH,ComponentDrill
T2C0.800
; #@! TA.AperFunction,Plated,PTH,ComponentDrill
T3C1.000
; #@! TA.AperFunction,Plated,PTH,ComponentDrill
T4C1.100
; #@! TA.AperFunction,Plated,PTH,ComponentDrill
T5C1.300
%
G90
G05
T1
X108.81Y-107.77
X110.5Y-98.93
X112.58Y-173.94
X113.88Y-126.62
X114.01Y-172.51
X114.79Y-128.57
X115.83Y-174.72
X117.26Y-173.29
X117.52Y-104.0
X117.91Y-138.58
X118.04Y-125.06
X118.3Y-176.8
X119.08Y-122.59
X121.55Y-104.0
X121.55Y-152.49
X122.59Y-155.35
X123.89Y-122.07
X125.19Y-150.93
X125.19Y-153.14
X125.71Y-119.86
X125.71Y-154.05
X125.71Y-156.13
X127.01Y-142.35
X127.14Y-153.92
X127.27Y-152.1
X128.0Y-147.5
X128.57Y-124.67
X128.96Y-153.27
X128.96Y-156.13
X129.09Y-122.33
X129.48Y-104.0
X129.5Y-141.0
X129.61Y-152.49
X131.04Y-110.63
X131.04Y-152.49
X134.68Y-140.53
X134.68Y-145.99
X134.68Y-147.42
X135.46Y-111.54
X136.5Y-139.49
X137.54Y-104.0
X137.54Y-107.64
X137.54Y-124.54
X138.45Y-96.07
X139.5Y-156.5
X140.0Y-159.5
X140.4Y-118.82
X141.83Y-120.25
X142.48Y-96.07
X143.65Y-122.33
X144.17Y-134.42
X144.17Y-141.83
X144.95Y-143.26
X145.21Y-141.18
X145.34Y-156.52
X146.12Y-155.35
X146.25Y-142.35
X146.77Y-144.69
X147.03Y-141.7
X148.2Y-153.27
X148.33Y-142.87
X149.5Y-104.0
X149.5Y-107.64
X149.63Y-153.27
X150.41Y-96.07
X150.93Y-174.33
X151.5Y-175.5
X152.36Y-172.9
X152.75Y-131.04
X153.66Y-177.06
X153.92Y-163.15
X154.44Y-95.29
X157.1Y-172.5
X157.17Y-175.76
X157.56Y-105.04
X157.56Y-107.64
X158.21Y-177.84
X160.0Y-158.5
X162.37Y-118.04
X162.76Y-154.05
X162.89Y-122.33
X163.41Y-127.53
X163.5Y-91.0
X163.54Y-112.71
X163.54Y-119.47
X163.93Y-156.91
X164.19Y-126.75
X164.32Y-122.33
X164.45Y-141.05
X164.45Y-175.76
X164.84Y-154.83
X165.49Y-106.86
X165.62Y-143.13
X166.27Y-120.51
X166.4Y-112.71
X167.96Y-106.86
X167.96Y-109.72
X168.61Y-148.2
X169.0Y-125.0
X169.0Y-139.23
X169.26Y-179.27
X169.39Y-147.42
X170.0Y-121.901
X170.17Y-146.64
X170.43Y-172.9
X170.69Y-159.51
X171.558Y-176.942
X171.73Y-105.69
X171.73Y-113.1
X171.99Y-147.68
X173.03Y-142.61
X173.42Y-149.11
X174.2Y-95.03
X174.46Y-96.07
X174.59Y-106.99
X175.24Y-121.81
X176.02Y-135.07
X176.28Y-118.17
X176.54Y-159.77
X177.97Y-161.2
X178.75Y-161.98
X178.88Y-156.0
X179.14Y-141.96
X179.4Y-159.77
X180.83Y-137.02
X181.5Y-144.5
X182.0Y-152.88
X182.65Y-153.66
X183.04Y-137.28
X183.82Y-107.77
X184.08Y-153.66
X184.99Y-165.75
X185.12Y-155.74
X185.5Y-147.0
X186.55Y-96.07
X187.85Y-165.75
X190.19Y-117.78
X190.58Y-144.3
X191.62Y-137.02
X191.75Y-122.46
X192.79Y-139.1
X193.18Y-132.73
X193.83Y-144.3
X194.5Y-127.0
X197.86Y-129.35
X197.86Y-139.1
X202.93Y-130.91
X204.1Y-167.57
X204.5Y-91.45
X205.0Y-119.5
X206.18Y-169.65
X209.82Y-118.56
X210.6Y-137.8
X210.6Y-142.74
X211.12Y-121.29
X211.64Y-148.33
X211.77Y-156.65
X212.81Y-123.89
X213.2Y-121.81
X213.85Y-146.25
X214.37Y-135.46
X214.89Y-139.88
X217.36Y-137.28
X217.88Y-116.61
X218.14Y-145.73
X218.14Y-170.04
X218.53Y-137.28
X219.57Y-162.11
X221.13Y-117.52
X221.13Y-118.56
X221.13Y-123.63
X223.99Y-117.52
X223.99Y-118.56
X223.99Y-121.16
X226.59Y-96.98
X226.59Y-98.41
X226.59Y-110.0
X228.15Y-127.01
X228.41Y-116.09
X230.1Y-101.92
X230.88Y-124.28
X231.53Y-119.86
X232.31Y-99.71
X232.31Y-119.08
X233.22Y-113.62
X234.0Y-91.39
X234.52Y-139.75
X235.04Y-92.56
X236.73Y-121.68
X239.59Y-113.36
X239.85Y-133.64
X240.24Y-121.03
X241.02Y-180.31
X241.54Y-112.84
X242.58Y-130.91
X243.62Y-95.81
X244.01Y-109.07
X245.96Y-171.34
X246.87Y-129.61
X247.39Y-132.73
X247.65Y-120.38
X249.08Y-129.87
X249.34Y-134.03
X249.47Y-112.58
X251.55Y-113.36
X252.98Y-100.1
X252.98Y-136.89
X254.28Y-104.26
X254.54Y-162.11
X254.67Y-121.81
X255.71Y-102.83
X256.1Y-91.65
X257.01Y-127.14
X257.01Y-151.71
X257.14Y-111.02
X257.14Y-116.61
X258.31Y-118.56
X262.47Y-140.14
X264.81Y-118.82
X265.98Y-118.82
X267.41Y-106.34
X267.67Y-140.14
X269.36Y-112.84
X269.36Y-114.92
X269.49Y-94.51
X269.49Y-97.76
X269.75Y-93.21
X270.92Y-172.64
X273.0Y-100.36
X273.0Y-151.58
X274.17Y-151.58
X278.07Y-142.22
X280.93Y-105.04
X281.45Y-180.05
X282.36Y-106.47
X282.62Y-128.31
X282.75Y-170.95
X283.53Y-136.63
X283.66Y-100.88
X283.92Y-168.09
X284.18Y-115.31
X284.44Y-97.24
X284.83Y-127.27
X285.74Y-131.04
X286.65Y-129.09
X288.08Y-136.24
X291.46Y-106.73
X292.11Y-140.14
X292.5Y-120.9
X292.63Y-88.92
X293.67Y-108.94
X294.19Y-88.14
T2
X105.5Y-100.0
X105.5Y-110.16
X108.0Y-157.735
X108.0Y-160.275
X108.0Y-162.815
X108.0Y-165.355
X108.0Y-167.895
X108.0Y-170.435
X108.0Y-172.975
X108.695Y-123.11
X108.695Y-125.65
X108.695Y-128.19
X108.695Y-130.73
X108.695Y-133.27
X108.695Y-135.81
X108.695Y-138.35
X108.695Y-140.89
X109.305Y-176.855
X109.5Y-100.0
X109.5Y-110.16
X109.695Y-144.73
X113.5Y-100.0
X113.5Y-110.16
X114.305Y-176.855
X114.695Y-144.73
X115.62Y-157.735
X115.62Y-160.275
X115.62Y-162.815
X115.62Y-165.355
X115.62Y-167.895
X115.62Y-170.435
X115.62Y-172.975
X116.315Y-123.11
X116.315Y-125.65
X116.315Y-128.19
X116.315Y-130.73
X116.315Y-133.27
X116.315Y-135.81
X116.315Y-138.35
X116.315Y-140.89
X117.5Y-100.0
X117.5Y-110.16
X121.5Y-100.0
X121.5Y-110.16
X125.5Y-100.0
X125.5Y-110.16
X125.5Y-122.3
X125.5Y-124.84
X125.5Y-127.38
X125.5Y-129.92
X125.5Y-132.46
X125.5Y-135.0
X125.5Y-137.54
X125.5Y-140.08
X126.195Y-157.88
X126.195Y-160.42
X126.195Y-162.96
X126.195Y-165.5
X126.195Y-168.04
X126.195Y-170.58
X126.195Y-173.12
X126.805Y-144.19
X127.195Y-177.0
X129.5Y-100.0
X129.5Y-110.16
X131.805Y-144.19
X132.195Y-177.0
X133.12Y-122.3
X133.12Y-124.84
X133.12Y-127.38
X133.12Y-129.92
X133.12Y-132.46
X133.12Y-135.0
X133.12Y-137.54
X133.12Y-140.08
X133.5Y-100.0
X133.5Y-110.16
X133.815Y-157.88
X133.815Y-160.42
X133.815Y-162.96
X133.815Y-165.5
X133.815Y-168.04
X133.815Y-170.58
X133.815Y-173.12
X137.5Y-100.0
X137.5Y-110.16
X141.5Y-100.0
X141.5Y-110.16
X141.695Y-122.88
X141.695Y-125.42
X141.695Y-127.96
X141.695Y-130.5
X141.695Y-133.04
X141.695Y-135.58
X141.695Y-138.12
X141.695Y-140.66
X143.5Y-144.77
X147.88Y-157.42
X147.88Y-159.96
X147.88Y-162.5
X147.88Y-165.04
X147.88Y-167.58
X147.88Y-170.12
X147.88Y-172.66
X147.88Y-175.2
X148.5Y-144.77
X149.315Y-122.88
X149.315Y-125.42
X149.315Y-127.96
X149.315Y-130.5
X149.315Y-133.04
X149.315Y-135.58
X149.315Y-138.12
X149.315Y-140.66
X149.38Y-179.04
X149.5Y-100.04
X149.5Y-110.2
X153.5Y-100.12
X153.5Y-110.28
X154.38Y-179.04
X155.5Y-157.42
X155.5Y-159.96
X155.5Y-162.5
X155.5Y-165.04
X155.5Y-167.58
X155.5Y-170.12
X155.5Y-172.66
X155.5Y-175.2
X157.5Y-100.04
X157.5Y-110.2
X161.5Y-100.04
X161.5Y-110.2
X165.5Y-100.04
X165.5Y-110.2
X165.88Y-122.34
X165.88Y-124.88
X165.88Y-127.42
X165.88Y-129.96
X165.88Y-132.5
X165.88Y-135.04
X165.88Y-137.58
X165.88Y-140.12
X166.075Y-157.27
X166.075Y-159.81
X166.075Y-162.35
X166.075Y-164.89
X166.075Y-167.43
X166.075Y-169.97
X166.075Y-172.51
X166.075Y-175.05
X167.0Y-144.04
X167.575Y-178.93
X169.5Y-100.04
X169.5Y-110.2
X172.0Y-144.04
X172.575Y-178.93
X173.5Y-100.04
X173.5Y-110.2
X173.5Y-122.34
X173.5Y-124.88
X173.5Y-127.42
X173.5Y-129.96
X173.5Y-132.5
X173.5Y-135.04
X173.5Y-137.58
X173.5Y-140.12
X173.695Y-157.27
X173.695Y-159.81
X173.695Y-162.35
X173.695Y-164.89
X173.695Y-167.43
X173.695Y-169.97
X173.695Y-172.51
X173.695Y-175.05
X177.5Y-100.04
X177.5Y-110.2
X181.5Y-100.12
X181.5Y-110.28
X182.38Y-122.605
X182.38Y-125.145
X182.38Y-127.685
X182.38Y-130.225
X182.38Y-132.765
X182.38Y-135.305
X182.38Y-137.845
X183.38Y-157.58
X183.38Y-160.12
X183.38Y-162.66
X183.38Y-165.2
X183.38Y-167.74
X183.38Y-170.28
X183.38Y-172.82
X183.685Y-141.725
X184.685Y-176.7
X185.5Y-100.04
X185.5Y-110.2
X188.685Y-141.725
X189.685Y-176.7
X190.0Y-122.605
X190.0Y-125.145
X190.0Y-127.685
X190.0Y-130.225
X190.0Y-132.765
X190.0Y-135.305
X190.0Y-137.845
X191.0Y-157.58
X191.0Y-160.12
X191.0Y-162.66
X191.0Y-165.2
X191.0Y-167.74
X191.0Y-170.28
X191.0Y-172.82
X201.38Y-122.88
X201.38Y-125.42
X201.38Y-127.96
X201.38Y-130.5
X201.38Y-133.04
X201.38Y-135.58
X201.38Y-138.12
X202.685Y-142.0
X207.685Y-142.0
X209.0Y-122.88
X209.0Y-125.42
X209.0Y-127.96
X209.0Y-130.5
X209.0Y-133.04
X209.0Y-135.58
X209.0Y-138.12
X211.827Y-98.0
X211.827Y-103.0
X216.88Y-122.88
X216.88Y-125.42
X216.88Y-127.96
X216.88Y-130.5
X216.88Y-133.04
X216.88Y-135.58
X216.88Y-138.12
X218.185Y-142.0
X218.827Y-98.0
X218.827Y-103.0
X221.26Y-170.172
X221.34Y-166.123
X223.185Y-142.0
X224.5Y-122.88
X224.5Y-125.42
X224.5Y-127.96
X224.5Y-130.5
X224.5Y-133.04
X224.5Y-135.58
X224.5Y-138.12
X229.58Y-92.0
X229.58Y-97.0
X231.42Y-170.172
X231.5Y-166.123
X233.46Y-90.695
X233.46Y-98.315
X233.54Y-112.38
X233.54Y-117.38
X233.92Y-129.57
X233.92Y-133.62
X233.92Y-139.07
X233.92Y-143.12
X233.92Y-148.57
X233.92Y-152.62
X236.0Y-90.695
X236.0Y-98.315
X237.26Y-110.88
X237.26Y-118.5
X238.54Y-90.695
X238.54Y-98.315
X239.8Y-110.88
X239.8Y-118.5
X241.08Y-90.695
X241.08Y-98.315
X242.34Y-110.88
X242.34Y-118.5
X243.62Y-90.695
X243.62Y-98.315
X244.08Y-129.57
X244.08Y-133.62
X244.08Y-139.07
X244.08Y-143.12
X244.08Y-148.57
X244.08Y-152.62
X244.88Y-110.88
X244.88Y-118.5
X246.16Y-90.695
X246.16Y-98.315
X247.42Y-110.88
X247.42Y-118.5
X248.7Y-90.695
X248.7Y-98.315
X249.96Y-110.88
X249.96Y-118.5
X251.92Y-130.88
X251.92Y-146.12
X252.5Y-110.88
X252.5Y-118.5
X254.46Y-130.88
X254.46Y-146.12
X255.04Y-110.88
X255.04Y-118.5
X256.26Y-170.0
X256.34Y-166.0
X257.0Y-130.88
X257.0Y-146.12
X259.54Y-130.88
X259.54Y-146.12
X262.08Y-130.88
X262.08Y-146.12
X266.42Y-170.0
X266.5Y-166.0
X267.66Y-112.38
X267.66Y-117.38
X267.92Y-131.12
X267.92Y-146.36
X270.46Y-131.12
X270.46Y-146.36
X271.42Y-110.88
X271.42Y-118.5
X273.0Y-131.12
X273.0Y-146.36
X273.46Y-93.185
X273.46Y-98.185
X273.782Y-176.0
X273.92Y-163.0
X273.96Y-110.88
X273.96Y-118.5
X275.54Y-131.12
X275.54Y-146.36
X276.5Y-110.88
X276.5Y-118.5
X276.5Y-181.0
X277.0Y-168.0
X277.42Y-91.38
X277.42Y-99.0
X278.08Y-131.12
X278.08Y-146.36
X279.04Y-110.88
X279.04Y-118.5
X279.96Y-91.38
X279.96Y-99.0
X281.5Y-181.0
X281.58Y-110.88
X281.58Y-118.5
X282.0Y-168.0
X282.5Y-91.38
X282.5Y-99.0
X283.942Y-176.0
X284.08Y-163.0
X284.12Y-110.88
X284.12Y-118.5
X284.92Y-129.0
X284.92Y-133.05
X284.92Y-138.11
X284.92Y-142.16
X284.92Y-147.5
X284.92Y-151.55
X285.04Y-91.38
X285.04Y-99.0
X285.13Y-155.75
X286.66Y-110.88
X286.66Y-118.5
X287.58Y-91.38
X287.58Y-99.0
X289.2Y-110.88
X289.2Y-118.5
X290.12Y-91.38
X290.12Y-99.0
X292.66Y-91.38
X292.66Y-99.0
X295.08Y-129.0
X295.08Y-133.05
X295.08Y-138.11
X295.08Y-142.16
X295.08Y-147.5
X295.08Y-151.55
X295.2Y-91.38
X295.2Y-99.0
X295.29Y-155.75
T3
X107.5Y-90.92
X107.5Y-93.46
X107.5Y-96.0
X115.5Y-90.96
X115.5Y-93.5
X115.5Y-96.04
X123.5Y-90.96
X123.5Y-93.5
X123.5Y-96.04
X131.5Y-91.0
X131.5Y-93.54
X131.5Y-96.08
X139.5Y-90.96
X139.5Y-93.5
X139.5Y-96.04
X151.5Y-91.0
X151.5Y-93.54
X151.5Y-96.08
X159.5Y-91.0
X159.5Y-93.54
X159.5Y-96.08
X167.5Y-91.0
X167.5Y-93.54
X167.5Y-96.08
X175.5Y-91.0
X175.5Y-93.54
X175.5Y-96.08
X183.5Y-91.0
X183.5Y-93.54
X183.5Y-96.08
T4
X205.92Y-166.172
X212.96Y-93.0
X215.5Y-93.0
X216.08Y-166.172
X218.04Y-93.0
X224.34Y-176.5
X226.88Y-176.5
X229.42Y-176.5
X239.42Y-166.0
X249.58Y-166.0
X259.38Y-176.55
X261.92Y-176.55
X264.46Y-176.55
X291.0Y-162.0
X291.0Y-168.5
X291.0Y-175.0
X291.0Y-181.5
X295.5Y-162.0
X295.5Y-168.5
X295.5Y-175.0
X295.5Y-181.5
T5
X195.5Y-94.5
X200.5Y-94.5
X207.5Y-175.172
X212.5Y-175.172
X241.0Y-175.0
X246.0Y-175.0
X259.0Y-94.328
X264.0Y-94.328
M30
